# AST/ASF file generated using VICON BodyLanguage
# -----------------------------------------------
:version 1.10
:name VICON
:units
  mass 1.0
  length 0.45
  angle deg
:documentation
   .ast/.asf automatically generated from VICON data using
   VICON BodyBuilder and BodyLanguage model FoxedUp or BRILLIANT.MOD
:root
   order TX TY TZ RX RY RZ
   axis XYZ
   position 0 0 0  
   orientation 0 0 0 
:bonedata
  begin
     id 1 
     name lhipjoint
     direction 0.584852 -0.759097 0.285867 
     length 2.43633 
     axis 0 0 0  XYZ
  end
  begin
     id 2 
     name lfemur
     direction 0.34202 -0.939693 0  
     length 7.14704  
     axis 0 0 20  XYZ
    dof rx ry rz
    limits (-160.0 20.0)
           (-70.0 70.0)
           (-60.0 70.0)
  end
  begin
     id 3 
     name ltibia
     direction 0.342022 -0.939692 0   
     length 7.68483   
     axis 0 0 20   XYZ
    dof rx
    limits (-10.0 170.0)
  end
  begin
     id 4 
     name lfoot
     direction 0.0999605 -0.274639 0.956337   
     length 2.40452   
     axis -90 7.62852e-016 20   XYZ
    dof rx rz
    limits (-45.0 90.0)
           (-70.0 20.0)
  end
  begin
     id 5 
     name ltoes
     direction 1.53468e-011 -4.21881e-011 1   
     length 1.19837   
     axis -90 7.62852e-016 20   XYZ
    dof rx
    limits (-90.0 20.0)
  end
  begin
     id 6 
     name rhipjoint
     direction -0.569886 -0.769002 0.289597   
     length 2.40495  
     axis 0 0 0  XYZ 
  end
  begin
     id 7 
     name rfemur
     direction -0.34202 -0.939693 0   
     length 7.45086   
     axis 0 0 -20   XYZ
    dof rx ry rz
    limits (-160.0 20.0)
           (-70.0 70.0)
           (-70.0 60.0)
  end
  begin
     id 8 
     name rtibia
     direction -0.34202 -0.939693 0   
     length 7.76831   
     axis 0 0 -20   XYZ
    dof rx
    limits (-10.0 170.0)
 end
 begin
     id 9 
     name rfoot
     direction -0.0798572 -0.219406 0.97236   
     length 2.35911  
     axis -90 -7.62852e-016 -20   XYZ
    dof rx rz
    limits (-45.0 90.0)
           (-20.0 70.0)
  end
  begin
     id 10 
     name rtoes
     direction -1.53469e-011 -4.21728e-011 1   
     length 1.18261   
     axis -90 -7.62852e-016 -20   XYZ
    dof rx
    limits (-90.0 20.0)
  end
  begin
     id 11 
     name lowerback
     direction 0.0242088 0.999437 0.0232389   
     length 2.1561   
     axis 0 0 0   XYZ
    dof rx ry rz
    limits (-20.0 45.0)
           (-30.0 30.0)
           (-30.0 30.0)
  end
  begin
     id 12 
     name upperback
     direction -0.0356893 0.999013 -0.0264323   
     length 2.14431   
     axis 0 0 0   XYZ
    dof rx ry rz
    limits (-20.0 45.0)
           (-30.0 30.0)
           (-30.0 30.0)
  end
  begin
     id 13 
     name thorax
     direction -0.0472163 0.998194 -0.0371284   
     length 2.16169   
     axis 0 0 0   XYZ
    dof rx ry rz
    limits (-20.0 45.0)
           (-30.0 30.0)
           (-30.0 30.0)
  end
  begin
     id 14 
     name lowerneck
     direction 0.00863244 0.999921 0.00911972   
     length 1.58651   
     axis 0 0 0   XYZ
    dof rx ry rz
    limits (-20.0 45.0)
           (-30.0 30.0)
           (-30.0 30.0)
  end
  begin
     id 15 
     name upperneck
     direction 0.149523 0.979068 -0.138086   
     length 1.57486   
     axis 0 0 0   XYZ
    dof rx ry rz
    limits (-20.0 45.0)
           (-30.0 30.0)
           (-30.0 30.0)
  end
  begin
     id 16
     name head
     direction 0.0445219 0.997708 -0.0509576  
     length 1.6019  
     axis 0 0 0   XYZ
    dof rx ry rz
    limits (-20.0 45.0)
           (-30.0 30.0)
           (-30.0 30.0)
  end
  begin
     id 17 
     name lclavicle
     direction 0.911271 0.381667 -0.154644  
     length 3.80848  
     axis 0 0 0   XYZ
    dof ry rz
    limits (-20.0 10.0)
           (0.0 20.0)
  end
  begin
     id 18 
     name lhumerus
     direction 1 -4.49003e-011 2.1308e-027   
     length 5.19069   
     axis 180 -30 -90   XYZ
    dof rx ry rz
    limits (-60.0 90.0)
           (-90.0 90.0)
           (-90.0 90.0)
  end
  begin
     id 19
     name lradius
     direction 1 -4.48914e-011 4.01554e-027   
     length 3.30016   
     axis 180 -30 -90   XYZ
    dof rx
    limits (-10.0 170.0)
  end
  begin
     id 20
     name lwrist
     direction 1 -4.49003e-011 1.1934e-026   
     length 1.65008   
     axis -8.46377e-015 90 90   XYZ
    dof ry
    limits (-180.0 0.0)
 end
  begin
     id 21 
     name lhand
     direction 1 -4.49034e-011 2.38659e-026   
     length 0.707698   
     axis -1.52313e-014 90 90   XYZ
    dof rx rz
    limits (-90.0 90.0)
           (-45.0 45.0)
  end
  begin
     id 22 
     name lfingers
     direction 1 -4.48691e-011 4.77775e-026   
     length 0.570564   
     axis -3.04623e-014 90 90   XYZ
    dof rx
    limits (0.0 90.0)
  end
  begin
     id 23
     name lthumb
     direction 0.707107 -6.34832e-011 0.707107   
     length 0.819219   
     axis -90 45 -1.62303e-014   XYZ
    dof rx rz
    limits (-45.0 45.0)
           (-45.0 45.0)
  end
  begin
     id 24 
     name rclavicle
     direction -0.815579 0.573708 -0.0754329   
     length 3.54371  
     axis 0 0 0   XYZ 
    dof ry rz
    limits (-10.0 20.0)
           (-20.0 0.0)
  end
  begin
     id 25 
     name rhumerus
     direction -1 -4.48956e-011 3.05351e-028  
     length 5.23924   
     axis 180 30 90   XYZ
    dof rx ry rz
    limits (-90.0 60.0)
           (-90.0 90.0)
           (-90.0 90.0)
  end
  begin
     id 26 
     name rradius
     direction -1 -4.49013e-011 3.53849e-027   
     length 3.32953   
     axis 180 30 90   XYZ
    dof rx
    limits (-10.0 170.0)
  end
  begin
     id 27 
     name rwrist
     direction -1 -4.48901e-011 1.19374e-026   
     length 1.66477   
     axis -8.46377e-015 -90 -90   XYZ
    dof ry
    limits (-180.0 0.0)
  end
  begin
     id 28
     name rhand
     direction -1 -4.48877e-011 2.38764e-026   
     length 0.607414   
     axis -1.52313e-014 -90 -90   XYZ
    dof rx rz
    limits (-90.0 90.0)
           (-45.0 45.0)
  end
  begin
     id 29
     name rfingers
     direction -1 -4.48882e-011 4.77521e-026   
     length 0.489712   
     axis -3.04623e-014 -90 -90   XYZ
    dof rx
    limits (0.0 90.0)
  end
  begin
     id 30
     name rthumb
     direction -0.707107 -6.34974e-011 0.707107   
     length 0.703132   
     axis -90 -45 1.62303e-014   XYZ
    dof rx rz
    limits (-45.0 45.0)
           (-45.0 45.0)
  end
:hierarchy
  begin
    root lhipjoint rhipjoint lowerback
    lhipjoint lfemur
    lfemur ltibia
    ltibia lfoot
    lfoot ltoes
    rhipjoint rfemur
    rfemur rtibia
    rtibia rfoot
    rfoot rtoes
    lowerback upperback
    upperback thorax
    thorax lowerneck lclavicle rclavicle
    lowerneck upperneck
    upperneck head
    lclavicle lhumerus
    lhumerus lradius
    lradius lwrist
    lwrist lhand lthumb
    lhand lfingers
    rclavicle rhumerus
    rhumerus rradius
    rradius rwrist
    rwrist rhand rthumb
    rhand rfingers
  end

#!OML:ASF E:\VariousWalksJay\Project 1\Capture day 1\Session 1\Actor2.ASF
:FULLY-SPECIFIED
:DEGREES
446
root 14.1284 14.3107 8.53703 22.0774 -42.7666 -12.3276
lowerback 14.4463 3.81173 -3.91944
upperback 3.25391 3.98801 -5.44536
thorax -4.50818 1.92336 -4.26425
lowerneck -12.2414 1.01497 -4.91107
upperneck -5.15005 2.0015 19.0693
head 0.355934 1.26569 6.75292
rclavicle -3.18055e-015 6.36111e-015
rhumerus 1.83092 27.6155 -56.7541
rradius 40.1965
rwrist -29.026
rhand -4.27698 -3.01907
rfingers 7.12502
rthumb 21.488 -31.8472
lclavicle -3.18055e-015 6.36111e-015
lhumerus 51.1995 -41.5578 4.33757
lradius 60.0657
lwrist 28.4613
lhand -34.7998 -3.13154
lfingers 7.12502
lthumb -7.95159 26.6989
rfemur -26.8377 -24.3959 -3.54459
rtibia 55.5797
rfoot -10.3062 -8.31233
rtoes -15.0774
lfemur -59.7127 30.0492 0.10055
ltibia 70.1214
lfoot -13.0623 0.818171
ltoes -18.7674
447
root 14.0713 14.3294 8.56616 21.683 -42.9835 -12.3708
lowerback 13.9403 3.85407 -3.91886
upperback 2.97383 4.07419 -5.47273
thorax -4.52416 1.9699 -4.28481
lowerneck -12.4046 0.90853 -4.9647
upperneck -4.54386 1.77244 19.2183
head 0.587823 1.19451 6.80696
rclavicle -5.56597e-014 2.22639e-014
rhumerus 1.71309 27.0352 -56.9271
rradius 40.1474
rwrist -29.8523
rhand -4.8707 -3.10724
rfingers 7.12502
rthumb 20.9176 -31.9994
lclavicle -5.56597e-014 2.22639e-014
lhumerus 50.6985 -41.3514 4.3162
lradius 59.1714
lwrist 28.0304
lhand -34.2727 -2.54563
lfingers 7.12502
lthumb -7.44276 27.3034
rfemur -25.9361 -23.9619 -3.76098
rtibia 55.1246
rfoot -10.3501 -8.11803
rtoes -15.956
lfemur -58.6524 30.1271 0.56515
ltibia 69.9556
lfoot -13.1368 0.778814
ltoes -19.035
448
root 14.0142 14.3497 8.59228 21.2401 -43.2176 -12.3275
lowerback 13.4684 3.89234 -3.95159
upperback 2.70929 4.14514 -5.53219
thorax -4.54152 2.0085 -4.31944
lowerneck -12.7132 0.800928 -4.91724
upperneck -3.87003 1.51574 19.2788
head 0.866755 1.11809 6.81644
rclavicle 3.33958e-014 -3.18055e-014
rhumerus 1.58007 26.4353 -57.1336
rradius 40.2564
rwrist -30.6672
rhand -5.39255 -3.2536
rfingers 7.12502
rthumb 20.4162 -32.2003
lclavicle 3.33958e-014 -3.18055e-014
lhumerus 50.1242 -41.1155 4.35173
lradius 58.3204
lwrist 27.4524
lhand -33.7712 -1.92363
lfingers 7.12502
lthumb -6.95873 27.942
rfemur -25.0915 -23.5801 -4.03669
rtibia 54.722
rfoot -10.4487 -7.86054
rtoes -16.246
lfemur -57.583 30.1204 0.98522
ltibia 69.7874
lfoot -13.2236 0.788524
ltoes -19.292
449
root 13.9568 14.3657 8.61127 20.8446 -43.431 -12.3215
lowerback 13.0532 3.90007 -3.95798
upperback 2.42897 4.17506 -5.57599
thorax -4.60668 2.02648 -4.3501
lowerneck -13.0318 0.725316 -4.84771
upperneck -3.18751 1.29788 19.2885
head 1.1447 1.06138 6.80745
rclavicle -2.22639e-014 -2.8625e-014
rhumerus 1.37771 25.9146 -57.4058
rradius 40.458
rwrist -31.3319
rhand -6.16017 -3.25361
rfingers 7.12502
rthumb 19.6784 -32.2776
lclavicle -2.22639e-014 -2.8625e-014
lhumerus 49.4853 -40.8774 4.38496
lradius 57.4818
lwrist 26.942
lhand -33.2921 -1.34994
lfingers 7.12502
lthumb -6.49625 28.5304
rfemur -24.3547 -23.2047 -4.22876
rtibia 54.4068
rfoot -10.5848 -7.64157
rtoes -16.4055
lfemur -56.5888 30.1151 1.43888
ltibia 69.6153
lfoot -13.2403 0.814276
ltoes -19.4939
450
root 13.8993 14.3809 8.62718 20.3942 -43.7022 -12.2418
lowerback 12.6429 3.93604 -3.9637
upperback 2.1591 4.24277 -5.60745
thorax -4.66181 2.06294 -4.37388
lowerneck -13.097 0.64388 -5.07754
upperneck -2.72276 1.14891 19.4455
head 1.30982 1.02104 6.89613
rclavicle -1.43125e-014 2.54444e-014
rhumerus 1.16052 25.5655 -57.569
rradius 40.8254
rwrist -32.2955
rhand -7.17287 -3.31477
rfingers 7.12502
rthumb 18.7046 -32.4355
lclavicle -1.43125e-014 2.54444e-014
lhumerus 48.7585 -40.6072 4.6926
lradius 56.6487
lwrist 26.6703
lhand -32.7966 -1.00724
lfingers 7.12502
lthumb -6.01785 28.8873
rfemur -23.6912 -22.8596 -4.47465
rtibia 54.1632
rfoot -10.7148 -7.4442
rtoes -16.7412
lfemur -55.5681 30.1085 1.83883
ltibia 69.4393
lfoot -13.2566 0.877853
ltoes -19.7334
451
root 13.8423 14.3929 8.63696 19.9803 -43.9902 -12.1501
lowerback 12.2385 3.93815 -3.96502
upperback 1.92087 4.26336 -5.68922
thorax -4.68373 2.07519 -4.44416
lowerneck -13.478 0.598083 -4.84018
upperneck -2.10628 0.960365 19.2269
head 1.57353 0.972546 6.78577
rclavicle 1.31198e-013 -2.8625e-014
rhumerus 1.05658 25.1665 -57.8634
rradius 41.2885
rwrist -33.4472
rhand -8.23648 -3.58421
rfingers 7.12502
rthumb 17.6813 -32.8003
lclavicle 1.31198e-013 -2.8625e-014
lhumerus 47.8396 -40.1711 5.17241
lradius 55.6477
lwrist 26.0861
lhand -32.2346 -0.71464
lfingers 7.12502
lthumb -5.47523 29.1946
rfemur -23.1691 -22.5667 -4.68799
rtibia 54.0132
rfoot -10.8288 -7.28051
rtoes -17.3169
lfemur -54.628 30.1168 2.18762
ltibia 69.2526
lfoot -13.243 1.01714
ltoes -20.019
